<?xml version="1.0" encoding="UTF-8"?>
<svg id="Layer_2" data-name="Layer 2" xmlns="http://www.w3.org/2000/svg" viewBox="0 0 63.94 138.63">
  <defs>
    <style>
      .cls-1 {
        fill: #1ca047;
      }

      .cls-2 {
        fill: #21a44c;
      }

      .cls-3 {
        fill: #25a54f;
      }

      .cls-4 {
        fill: #006120;
      }

      .cls-5 {
        fill: #33af5c;
      }
    </style>
  </defs>
  <g id="Layer_1-2" data-name="Layer 1">
    <g>
      <path class="cls-2" d="M15.95,.31c10.73-.37,21.47-.48,32.2,.06,1.32,2.33,.77,4.89,.69,7.33-.1,2.84,.99,3.77,3.73,3.55,2.48-.2,4.99,.07,7.48-.07,2.33-.13,3.17,.92,3.07,3.08-.03,.75,0,1.49,0,2.24,0,38.86,0,77.72,0,116.58q0,5.24-5.35,5.24c-17.46,0-34.92,.02-52.38-.03-1.38,0-3.05,.72-4.1-.94-.41-1.08-.31-2.21-.31-3.32,0-39.7,0-79.4,0-119.1,0-.75,0-1.49,.12-2.23,.4-1.64,1.72-1.47,2.95-1.48,2.83,0,5.66-.08,8.49,.03,1.78,.07,2.26-.64,2.36-2.36,.16-2.87-.97-5.93,1.05-8.57Z"/>
      <path class="cls-5" d="M15.95,.31c-.93,2.61-.87,5.33-.68,8.01,.19,2.65-.91,3.3-3.42,3.36-3.37,.08-6.84-.89-10.13,.63-.66,1.03-.37,2.18-.37,3.28-.02,39.45-.02,78.89,0,118.34,0,1.09-.29,2.25,.37,3.28,1,1.1,2.33,.69,3.53,.69,17.71,.02,35.42-.08,53.13,.1,3.45,.04,4.08-1.12,4.07-4.27-.1-39.36-.11-78.72,.01-118.08,.01-3.38-1-4.42-4.24-4.09-2.47,.25-4.99-.02-7.48,.06-1.94,.07-2.68-.74-2.62-2.65,.09-2.86,.02-5.73,.01-8.59,2.82,1.77,1.32,4.56,1.27,6.77-.06,3.17,.93,3.93,4,3.88,10.43-.15,10.43-.03,10.43,10.23,0,37.5-.05,74.99,.08,112.49,.01,3.73-.91,4.92-4.78,4.88-18.21-.2-36.42-.16-54.63-.02C1.16,138.63-.01,137.76,0,134.21,.11,94.6,.11,54.99,0,15.37c0-3.37,.83-4.85,4.4-4.47,2.47,.26,4.99-.05,7.48,.08,2.01,.11,2.64-.73,2.51-2.63-.12-1.86-.05-3.74-.01-5.6,.02-1.1-.09-2.36,1.57-2.44Z"/>
      <path class="cls-4" d="M61.63,74.75c0,19.31-.06,38.62,.06,57.92,.02,2.91-.75,3.84-3.76,3.81-17.21-.14-34.43-.15-51.64,0-3.22,.03-3.91-1.04-3.9-4.05,.09-38.49,.1-76.98,0-115.48,0-3.18,.99-4.32,4.03-3.87,.49,.07,1,.04,1.49,0,2.72-.18,6.02,1.08,8.01-.54,1.96-1.6,.62-4.92,.73-7.48,.07-1.65,.53-2.57,2.29-2.67,1.11-.06,2.2-.46,3.31-.47,6.61-.05,13.22-.14,19.83,.04,2.51,.07,5.55-.35,5.4,4.1-.23,7.01,.01,7.02,7.44,7.02q6.72,0,6.72,6.71c0,18.31,0,36.62,0,54.94Z"/>
      <path class="cls-3" d="M1.73,137.21c-1.22-1.1-.72-2.57-.72-3.87-.03-39.05-.03-78.1,0-117.15,0-1.31-.49-2.77,.72-3.87,0,41.63,0,83.26,0,124.89Z"/>
      <path class="cls-1" d="M32.39,35.49c-6.48,0-12.96,.03-19.44-.01-4.6-.03-6-1.47-6.02-6.01-.01-2.49,.08-4.98-.02-7.47-.14-3.55,1.93-5.1,5.03-5.12,13.46-.11,26.92-.12,40.38,.01,3.14,.03,5.06,1.77,4.87,5.28-.13,2.48-.01,4.98-.03,7.47-.03,4.64-1.27,5.84-6.07,5.86-6.23,.02-12.46,0-18.7,0Z"/>
      <path class="cls-1" d="M31.67,41.5c6.48,0,12.96-.03,19.43,.01,4.63,.03,6.03,1.45,6.06,5.97,.01,2.24,.01,4.48,0,6.72-.03,4.21-1.22,5.85-5.39,5.9-13.33,.16-26.66,.13-39.99,0-3.14-.03-5.05-1.76-4.89-5.26,.13-2.73-.02-5.47,.04-8.21,.07-3.69,1.5-5.09,5.3-5.12,6.48-.05,12.96-.01,19.43-.01Z"/>
      <path class="cls-1" d="M31.43,107.99c-6.22,0-12.45,.04-18.67-.01-4.37-.04-5.8-1.51-5.83-5.8-.02-2.73,0-5.47,0-8.2,0-3.04,1.51-4.62,4.57-4.62,13.44,0,26.89-.05,40.33,.02,3.83,.02,5.29,1.69,5.33,5.54,.03,2.24,.02,4.48,0,6.71-.04,4.56-1.67,6.28-6.31,6.34-6.47,.08-12.94,.02-19.42,.02Z"/>
      <path class="cls-1" d="M31.3,132c-6.47,0-12.95-.1-19.42,.04-3.44,.07-5.14-1.18-4.98-4.77,.13-2.85,.03-5.72,.03-8.58,0-3.02,1.44-4.66,4.53-4.66,13.69,0,27.39-.02,41.08,.02,2.99,0,4.56,1.67,4.61,4.66,.04,2.86,.05,5.72,0,8.58-.06,3.19-1.75,4.73-4.94,4.72-6.97-.01-13.94,0-20.92,0Z"/>
      <path class="cls-1" d="M31.93,66.17c6.47,0,12.95-.04,19.42,.02,4.36,.04,5.77,1.52,5.82,5.83,.11,11.27,.05,11.33-11.34,11.33-10.46,0-20.92,.01-31.38,0-6.49,0-7.52-1.06-7.52-7.57q0-9.6,9.69-9.6c5.1,0,10.21,0,15.31,0Z"/>
    </g>
  </g>
</svg>