<?xml version="1.0" encoding="UTF-8"?>
<svg id="Layer_2" data-name="Layer 2" xmlns="http://www.w3.org/2000/svg" viewBox="0 0 63.78 138.57">
  <defs>
    <style>
      .cls-1 {
        fill: #c08b00;
      }

      .cls-2 {
        fill: #f7b307;
      }

      .cls-3 {
        fill: #f8b404;
      }

      .cls-4 {
        fill: #f7b100;
      }
    </style>
  </defs>
  <g id="Layer_1-2" data-name="Layer 1">
    <g>
      <path class="cls-3" d="M15.9,.33c10.73-.4,21.47-.5,32.2,.06,1.25,2.08,.66,4.38,.73,6.59,.12,4.2,.07,4.21,4.11,4.22,2.24,0,4.51,.17,6.73-.04,2.79-.27,3.56,1.07,3.4,3.51-.04,.62,0,1.25,0,1.87,0,38.86,0,77.72,0,116.59,0,5.19-.01,5.19-5.02,5.19-17.59,0-35.17,0-52.76,0-4.71,0-4.73-.02-4.73-4.84,0-39.24,0-78.47,0-117.71,0-4.47,.08-4.5,4.64-4.57,3.11-.05,6.25,.36,9.33-.23,1.81-.35,1.89,.53,1.69,1.83-1.32,1.72-3.27,1.25-5.03,1.42-2.5,.24-5.11-.56-7.49,.79-1.15,1.09-.96,2.5-.96,3.86,0,37.22,0,74.45,0,111.67,0,1.47-.24,3.03,1.15,4.12,1.4,.75,2.92,.6,4.4,.6,15.71,.01,31.42,.02,47.13,0,4.67,0,4.93-.25,4.94-4.8,.02-36.98,.02-73.97,0-110.95,0-4.95-.3-5.18-5.36-5.24-.75,0-1.5,0-2.24,0-5.78-.08-6.36-.49-6.56-6.42-.1-3.11-1.42-4.11-4.35-4.07-6.61,.09-13.22,.04-19.82,.02-1.74,0-3.5,.13-5.19-.45-1.36-.67-1.78-1.64-.94-2.99Z"/>
      <path class="cls-2" d="M15.9,.33c.03,.82-.14,1.7,.72,2.25,1.97,4,1.67,8.42-.72,10.45-.14-.75,.32-1.75-1.24-1.67-3.61,.18-7.22,.19-10.84,.2-2.05,0-2.98,.95-2.9,2.97,.03,.62,0,1.25,0,1.87,0,38.88,0,77.75,0,116.63q0,4.91,5.05,4.92c17.47,0,34.93-.07,52.4,.07,3.07,.02,4.02-.8,4.02-3.95-.1-39.5-.1-79,0-118.5,0-2.99-.66-4.11-3.9-4.07-10.39,.11-10.39-.02-10.39-10.35,0-.25,0-.5,0-.75,2.66,1.67,1.32,4.32,1.27,6.43-.07,3.11,.54,4.32,4.05,4.25,10.36-.22,10.36-.05,10.36,10.28,0,37.37,0,74.75,0,112.12q0,5.02-4.84,5.03c-18.21,0-36.42-.06-54.63,.06-3.24,.02-4.31-.93-4.3-4.24C.1,94.58,.1,54.84,0,15.1c0-3.35,1.1-4.59,4.31-4.13,.37,.05,.75,.01,1.12,0,2.74-.06,6.09,.82,8.05-.45,2.24-1.45,.51-5.06,.87-7.7,.15-1.09-.09-2.35,1.55-2.49Z"/>
      <path class="cls-1" d="M15.9,13.03c1.56-3.39,.38-6.97,.72-10.45,8.97-.01,17.95,.07,26.92-.09,2.85-.05,3.94,.64,3.87,3.72-.16,6.87,0,6.87,6.85,6.87q7.32,0,7.32,7.22c0,37.22-.05,74.44,.08,111.65,.01,3.61-.98,4.57-4.56,4.53-18.19-.17-36.39-.07-54.59-.07-.72-.87-.43-1.91-.43-2.88-.01-39.2-.01-78.4,0-117.6,0-.97-.28-2,.42-2.88,4.47-.01,8.94-.03,13.42-.04Z"/>
      <path class="cls-2" d="M2.49,13.07c0,41.12,0,82.24,.01,123.36-1.35-1.04-.8-2.53-.8-3.82-.03-38.57-.03-77.15,0-115.72,0-1.29-.54-2.78,.79-3.83Z"/>
      <path class="cls-4" d="M31.98,89.33c6.35,0,12.7-.01,19.05,0,4.91,.01,6.05,1.19,6.07,6.22,0,2.11,.02,4.23,0,6.34-.05,3.98-1.61,5.99-5.48,6.03-13.32,.14-26.65,.17-39.97-.04-2.9-.05-5.06-1.79-4.81-5.35,.18-2.6,0-5.22,.04-7.83,.05-4.17,1.18-5.35,5.3-5.37,6.6-.04,13.2-.01,19.8-.01Z"/>
      <path class="cls-4" d="M31.24,131.98c-6.47,0-12.95-.1-19.42,.04-3.45,.07-5.14-1.17-4.96-4.76,.14-2.85,.04-5.72,.03-8.58,0-3.03,1.43-4.66,4.52-4.66,13.69,0,27.39-.02,41.08,.01,2.99,0,4.56,1.67,4.61,4.66,.04,2.86,.05,5.72,0,8.58-.06,3.19-1.76,4.73-4.94,4.72-6.97-.02-13.94,0-20.91,0Z"/>
      <path class="cls-4" d="M32.02,66.16c6.35,0,12.7-.03,19.05,.01,4.59,.03,6,1.48,6.03,5.99,.08,11.11,0,11.18-11.12,11.18-10.58,0-21.17,.01-31.75,0-6.24-.01-7.35-1.15-7.36-7.35q0-9.83,9.82-9.83c5.11,0,10.21,0,15.32,0Z"/>
    </g>
  </g>
</svg>