<?xml version="1.0" encoding="UTF-8"?>
<svg id="Layer_2" data-name="Layer 2" xmlns="http://www.w3.org/2000/svg" viewBox="0 0 63.97 138.64">
  <defs>
    <style>
      .cls-1 {
        fill: #ef0000;
      }

      .cls-2 {
        fill: #a90000;
      }

      .cls-3 {
        fill: #f71818;
      }

      .cls-4 {
        fill: #f20909;
      }

      .cls-5 {
        fill: #e00;
      }

      .cls-6 {
        fill: #f71616;
      }
    </style>
  </defs>
  <g id="Layer_1-2" data-name="Layer 1">
    <g>
      <path class="cls-5" d="M15.96,.34c10.73-.41,21.47-.5,32.2,.05,.38,.52,.6,1.11,.69,1.74,.41,2.89-.61,5.89,.69,8.71,3.36,.86,6.78,.17,10.16,.39,1.28,.08,2.8-.39,3.31,1.45,.28,5.47,.11,10.94,.11,16.41,.02,34.32,.01,68.63,0,102.95,0,1.73,.18,3.48-.23,5.2-.69,1.55-2.09,1.08-3.27,1.09-18.33,.02-36.65,.02-54.98,0-1.17,0-2.56,.49-3.35-.97-.4-1.08-.3-2.21-.3-3.33,0-39.7,0-79.4,0-119.1,0-.75,0-1.49,.12-2.23,.42-1.67,1.77-1.46,3.01-1.46,2.75,0,5.5-.1,8.23,.03,2.16,.1,2.79-.86,2.89-2.86,.14-2.69-.73-5.49,.71-8.06Z"/>
      <path class="cls-3" d="M15.96,.34c0,2.46-.16,4.93,.03,7.37,.24,3.15-1.18,3.98-4.13,4.02-3.37,.04-6.84-.89-10.12,.61-.66,1.03-.37,2.18-.37,3.28-.02,39.45-.02,78.89,0,118.34,0,1.09-.3,2.25,.37,3.28,.88,1,2.07,.67,3.14,.68,18.12,.02,36.25,.02,54.37,0,1.08,0,2.26,.32,3.14-.68,.66-1.03,.37-2.18,.37-3.28,.02-39.44,.02-78.89,0-118.33,0-1.1,.29-2.25-.37-3.28-2.89-1.45-5.99-.33-8.97-.7-1.53-.19-3.21,.54-4.55-.75-.93-2.95,.32-6.07-.69-9.02,0-.5-.01-1-.02-1.49,2.91,1.72,1.31,4.52,1.3,6.72-.02,3.03,.69,4.27,3.9,3.93,2.59-.27,5.23-.02,7.85-.06,1.89-.03,2.77,.83,2.7,2.7-.02,.62,0,1.25,0,1.87,0,39.48-.04,78.95,.07,118.43,.01,3.55-.92,4.7-4.58,4.67-18.2-.17-36.41-.15-54.61-.01C1.34,138.65-.01,137.89,0,134.1,.13,94.5,.12,54.9,0,15.3c-.01-3.49,1.03-4.73,4.47-4.37,2.22,.24,4.5-.14,6.72,.09,2.76,.28,3.16-.92,3.31-3.39,.15-2.42-1.76-5.44,1.44-7.3Z"/>
      <path class="cls-2" d="M2.47,74.79c0-19.32,.06-38.64-.06-57.95-.02-2.97,.83-4.03,3.8-3.76,2.6,.23,5.24-.02,7.86,.07,1.9,.07,2.63-.63,2.69-2.59,.09-2.55-1.26-5.89,.76-7.46,2.01-1.57,5.3-.46,8.03-.49,6.11-.07,12.23,.06,18.34-.06,2.44-.05,3.56,.48,3.56,3.26,0,7.32,.14,7.32,7.55,7.32q6.62,0,6.62,6.43c0,37.27,0,74.53,0,111.8q0,5.08-5.22,5.08c-16.6,0-33.2-.09-49.79,.07-3.26,.03-4.24-.78-4.22-4.14,.16-19.19,.08-38.39,.08-57.58Z"/>
      <path class="cls-6" d="M62.39,12.34c1.22,1.1,.72,2.57,.72,3.87,.03,39.05,.03,78.09,0,117.14,0,1.31,.5,2.77-.72,3.87,0-41.63,0-83.26,0-124.88Z"/>
      <path class="cls-4" d="M1.73,137.23c-1.22-1.1-.72-2.57-.72-3.87-.03-39.05-.03-78.1,0-117.15,0-1.31-.49-2.77,.72-3.87,0,41.63,0,83.26,0,124.89Z"/>
      <path class="cls-6" d="M48.17,1.88c1.51,2.91,.39,6.02,.69,9.02-1.46-2.91-.36-6.02-.69-9.02Z"/>
      <path class="cls-1" d="M32.28,89.35c6.48,0,12.97-.03,19.45,0,4.2,.02,5.36,1.17,5.43,5.27,.04,2.49,.04,4.98,0,7.47-.06,3.88-1.71,5.83-5.66,5.86-13.22,.12-26.43,.11-39.65,0-3.14-.03-5.09-1.68-4.94-5.21,.12-2.73-.01-5.48,.03-8.22,.07-3.93,1.23-5.14,5.14-5.17,6.73-.05,13.47-.01,20.2-.01Z"/>
      <path class="cls-1" d="M31.75,132.01c-6.73,0-13.46-.08-20.18,.03-3.37,.06-4.79-1.37-4.66-4.7,.12-2.86,.04-5.72,.02-8.59-.01-3.01,1.37-4.71,4.48-4.71,13.71-.01,27.41-.03,41.12,.01,3,0,4.57,1.66,4.62,4.65,.05,2.86,0,5.72,.01,8.59,.02,3.26-1.62,4.75-4.86,4.73-6.85-.04-13.71-.01-20.56-.01Z"/>
    </g>
  </g>
</svg>